<svg id="Layer_1" data-name="Layer 1" xmlns="http://www.w3.org/2000/svg" viewBox="0 0 269 269"><rect x="10.5" y="10.5" width="7.11" height="7.11" rx="3.56" style="fill:#231f20"/><rect x="40.61" y="10.5" width="7.11" height="7.11" rx="3.56" style="fill:#231f20"/><rect x="70.72" y="10.5" width="7.11" height="7.11" rx="3.56" style="fill:#231f20"/><rect x="100.83" y="10.5" width="7.11" height="7.11" rx="3.56" style="fill:#231f20"/><rect x="130.94" y="10.5" width="7.11" height="7.11" rx="3.56" style="fill:#231f20"/><rect x="161.06" y="10.5" width="7.11" height="7.11" rx="3.56" style="fill:#231f20"/><rect x="191.17" y="10.5" width="7.11" height="7.11" rx="3.56" style="fill:#231f20"/><rect x="221.28" y="10.5" width="7.11" height="7.11" rx="3.56" style="fill:#231f20"/><rect x="251.39" y="10.5" width="7.11" height="7.11" rx="3.56" style="fill:#231f20"/><rect x="10.5" y="40.61" width="7.11" height="7.11" rx="3.56" style="fill:#231f20"/><rect x="40.61" y="40.61" width="7.11" height="7.11" rx="3.56" style="fill:#231f20"/><rect x="70.72" y="40.61" width="7.11" height="7.11" rx="3.56" style="fill:#231f20"/><rect x="100.83" y="40.61" width="7.11" height="7.11" rx="3.56" style="fill:#231f20"/><rect x="130.94" y="40.61" width="7.11" height="7.11" rx="3.56" style="fill:#231f20"/><rect x="161.06" y="40.61" width="7.11" height="7.11" rx="3.56" style="fill:#231f20"/><rect x="191.17" y="40.61" width="7.11" height="7.11" rx="3.56" style="fill:#231f20"/><rect x="221.28" y="40.61" width="7.11" height="7.11" rx="3.56" style="fill:#231f20"/><rect x="251.39" y="40.61" width="7.11" height="7.11" rx="3.56" style="fill:#231f20"/><rect x="10.5" y="70.72" width="7.11" height="7.11" rx="3.56" style="fill:#231f20"/><rect x="40.61" y="70.72" width="7.11" height="7.11" rx="3.56" style="fill:#231f20"/><rect x="70.72" y="70.72" width="7.11" height="7.11" rx="3.56" style="fill:#231f20"/><rect x="100.83" y="70.72" width="7.11" height="7.11" rx="3.56" style="fill:#231f20"/><rect x="130.94" y="70.72" width="7.11" height="7.11" rx="3.56" style="fill:#231f20"/><rect x="161.06" y="70.72" width="7.11" height="7.11" rx="3.56" style="fill:#231f20"/><rect x="191.17" y="70.72" width="7.11" height="7.11" rx="3.56" style="fill:#231f20"/><rect x="221.28" y="70.72" width="7.11" height="7.11" rx="3.56" style="fill:#231f20"/><rect x="251.39" y="70.72" width="7.11" height="7.11" rx="3.56" style="fill:#231f20"/><rect x="10.5" y="100.83" width="7.11" height="7.11" rx="3.56" style="fill:#231f20"/><rect x="40.61" y="100.83" width="7.11" height="7.11" rx="3.56" style="fill:#231f20"/><rect x="70.72" y="100.83" width="7.11" height="7.11" rx="3.56" style="fill:#231f20"/><rect x="100.83" y="100.83" width="7.11" height="7.11" rx="3.56" style="fill:#231f20"/><rect x="130.94" y="100.83" width="7.11" height="7.11" rx="3.56" style="fill:#231f20"/><rect x="161.06" y="100.83" width="7.11" height="7.11" rx="3.56" style="fill:#231f20"/><rect x="191.17" y="100.83" width="7.11" height="7.11" rx="3.56" style="fill:#231f20"/><rect x="221.28" y="100.83" width="7.11" height="7.11" rx="3.56" style="fill:#231f20"/><rect x="251.39" y="100.83" width="7.11" height="7.11" rx="3.56" style="fill:#231f20"/><rect x="10.5" y="130.94" width="7.11" height="7.11" rx="3.56" style="fill:#231f20"/><rect x="40.61" y="130.94" width="7.11" height="7.11" rx="3.56" style="fill:#231f20"/><rect x="70.72" y="130.94" width="7.11" height="7.11" rx="3.56" style="fill:#231f20"/><rect x="100.83" y="130.94" width="7.11" height="7.11" rx="3.56" style="fill:#231f20"/><rect x="130.94" y="130.94" width="7.11" height="7.11" rx="3.56" style="fill:#231f20"/><rect x="161.06" y="130.94" width="7.11" height="7.11" rx="3.56" style="fill:#231f20"/><rect x="191.17" y="130.94" width="7.11" height="7.11" rx="3.56" style="fill:#231f20"/><rect x="221.28" y="130.94" width="7.11" height="7.11" rx="3.56" style="fill:#231f20"/><rect x="251.39" y="130.94" width="7.11" height="7.11" rx="3.56" style="fill:#231f20"/><rect x="10.5" y="161.06" width="7.11" height="7.11" rx="3.56" style="fill:#231f20"/><rect x="40.61" y="161.06" width="7.11" height="7.11" rx="3.56" style="fill:#231f20"/><rect x="70.72" y="161.06" width="7.11" height="7.11" rx="3.56" style="fill:#231f20"/><rect x="100.83" y="161.06" width="7.11" height="7.11" rx="3.56" style="fill:#231f20"/><rect x="130.94" y="161.06" width="7.11" height="7.11" rx="3.56" style="fill:#231f20"/><rect x="161.06" y="161.06" width="7.11" height="7.11" rx="3.56" style="fill:#231f20"/><rect x="191.17" y="161.06" width="7.11" height="7.11" rx="3.56" style="fill:#231f20"/><rect x="221.28" y="161.06" width="7.11" height="7.11" rx="3.56" style="fill:#231f20"/><rect x="251.39" y="161.06" width="7.11" height="7.11" rx="3.56" style="fill:#231f20"/><rect x="10.5" y="191.17" width="7.11" height="7.11" rx="3.56" style="fill:#231f20"/><rect x="40.61" y="191.17" width="7.11" height="7.11" rx="3.56" style="fill:#231f20"/><rect x="70.72" y="191.17" width="7.11" height="7.11" rx="3.56" style="fill:#231f20"/><rect x="100.83" y="191.17" width="7.11" height="7.11" rx="3.56" style="fill:#231f20"/><rect x="130.94" y="191.17" width="7.11" height="7.11" rx="3.56" style="fill:#231f20"/><rect x="161.06" y="191.17" width="7.11" height="7.11" rx="3.56" style="fill:#231f20"/><rect x="191.17" y="191.17" width="7.11" height="7.11" rx="3.56" style="fill:#231f20"/><rect x="221.28" y="191.17" width="7.11" height="7.11" rx="3.56" style="fill:#231f20"/><rect x="251.39" y="191.17" width="7.11" height="7.11" rx="3.56" style="fill:#231f20"/><rect x="10.5" y="221.28" width="7.11" height="7.11" rx="3.56" style="fill:#231f20"/><rect x="40.61" y="221.28" width="7.11" height="7.11" rx="3.56" style="fill:#231f20"/><rect x="70.72" y="221.28" width="7.11" height="7.11" rx="3.56" style="fill:#231f20"/><rect x="100.83" y="221.28" width="7.11" height="7.11" rx="3.56" style="fill:#231f20"/><rect x="130.94" y="221.28" width="7.11" height="7.11" rx="3.56" style="fill:#231f20"/><rect x="161.06" y="221.28" width="7.11" height="7.11" rx="3.56" style="fill:#231f20"/><rect x="191.17" y="221.28" width="7.11" height="7.11" rx="3.56" style="fill:#231f20"/><rect x="221.28" y="221.28" width="7.11" height="7.11" rx="3.56" style="fill:#231f20"/><rect x="251.39" y="221.28" width="7.11" height="7.11" rx="3.56" style="fill:#231f20"/><rect x="10.5" y="251.39" width="7.11" height="7.11" rx="3.56" style="fill:#231f20"/><rect x="40.61" y="251.39" width="7.11" height="7.11" rx="3.56" style="fill:#231f20"/><rect x="70.72" y="251.39" width="7.11" height="7.11" rx="3.56" style="fill:#231f20"/><rect x="100.83" y="251.39" width="7.11" height="7.11" rx="3.56" style="fill:#231f20"/><rect x="130.94" y="251.39" width="7.11" height="7.11" rx="3.56" style="fill:#231f20"/><rect x="161.06" y="251.39" width="7.11" height="7.11" rx="3.56" style="fill:#231f20"/><rect x="191.17" y="251.39" width="7.11" height="7.11" rx="3.56" style="fill:#231f20"/><rect x="221.28" y="251.39" width="7.11" height="7.11" rx="3.56" style="fill:#231f20"/><rect x="251.39" y="251.39" width="7.11" height="7.11" rx="3.56" style="fill:#231f20"/></svg>